<svg version="1.1" id="Слой_1" xmlns="http://www.w3.org/2000/svg" x="0" y="0" viewBox="0 0 288 252" xml:space="preserve"><style>.st0{fill:#a20f07}.st3{fill:#373737}</style><path class="st0" d="M127.19 22c.24.25.45.53.71.75 12.31 9.89 24.62 19.78 36.91 29.69.46.37.9 1.07.9 1.63.15 15.28.24 30.55.34 45.83 0 .15-.02.3-.01.18-2.43-.83-4.84-1.88-7.35-2.46-3.66-.85-6.69.55-9.28 3.21-4.12 4.24-6.26 9.37-7.1 15.13-1.29 8.73-1.02 16.69 1.38 25.01H43.27v-3.62h92.9v-8.51c-31.29 1.22-62.43 2.44-93.63 3.65v-28.7c2-.22 4.01-.45 6.02-.66 9.7-1.02 19.39-2.05 29.09-3.06 8.74-.92 17.49-1.82 26.24-2.73 2.46-.26 4.93-.47 7.39-.78 3.03-.38 5.66-1.8 7.94-3.69 2.76-2.29 5.54-4.64 7.89-7.33 2.09-2.4 4.59-3.12 7.49-3.3 4.49-.28 8.82.68 13.12 1.79 3.05.79 6.1 1.53 9.34 2.35.15-4.07.29-8.03.43-12.06-3.66-1.21-7.25-2.4-10.84-3.59-11.09-3.67-22.18-7.34-33.29-10.97-.68-.22-1.5-.3-2.2-.15-22.02 4.46-44.04 8.95-66.06 13.44-.03.01-.07-.02-.33-.08.67-2.48 1.27-4.99 2.01-7.45 1.89-6.28 4.71-12.12 8.66-17.37a19.47 19.47 0 012.77-2.97c7.17-6.26 15.45-10.26 24.68-12.67 11.88-3.11 23.64-6.68 35.45-10.07.32-.09.62-.29.92-.44h7.93z"/><path class="st0" d="M261.59 133.36c-.08.4-.22.8-.23 1.2-.02 3.07-.01 6.15-.01 9.39-1.29-.06-2.38-.12-3.57-.17-.43-3.44-.85-6.84-1.27-10.3-6.93-1.35-13.82-2.69-20.87-4.07-.78 4.29-1.54 8.51-2.32 12.83-2.15-.1-4.26-.19-6.36-.3-5.95-.31-11.9-.64-17.85-.92-.86-.04-1.2-.26-1.37-1.18-1.2-6.64-2.52-13.25-3.72-19.89-.2-1.09-.58-1.56-1.72-1.81-5.17-1.15-10.32-2.44-15.67-3.72-1.34 8.79-2.67 17.53-3.98 26.21h-10.97c3.85-5.15 3.73-11 3.84-16.83.12-6-1.11-11.57-4.8-16.56.57-.2.97-.33 1.36-.48 2.28-.86 3.11-2.07 3.1-4.48-.13-17.95-.26-35.91-.4-53.86-.02-2.31-1.49-3.44-3.79-2.91-2.29.53-4.57 1.15-6.87 1.63-.52.11-1.25-.08-1.68-.41-1.72-1.29-3.36-2.68-5.21-4.18 2.16-.73 4.13-1.4 6.1-2.06 3.7-1.25 7.39-2.56 11.12-3.7 1.35-.41 2.81-.57 4.23-.59 1.33-.01 2.51.55 3.52 1.54 26.19 25.89 52.4 51.76 78.61 77.64.25.25.53.47.8.7v12.48c-.48-.18-.98-.33-1.44-.55-25.71-11.93-51.42-23.86-77.14-35.79-.37-.17-.75-.31-1.38-.57v10.21c.17.07.5.19.83.31 25.94 9.59 51.89 19.18 77.82 28.78.46.17.87.48 1.31.72-.02.57-.02 1.13-.02 1.69z"/><path d="M124.32 144.27h25.89c-1-2.58-2.22-5.06-2.92-7.68-2.18-8.23-1.84-16.37 1.49-24.28 1.1-2.61 2.63-4.94 4.96-6.64 2.9-2.13 6.09-2.16 9-.06 2.76 1.99 4.42 4.81 5.54 7.93 3.29 9.21 3.2 18.39-.54 27.46-1.04 2.54-2.57 4.78-4.8 6.47-1.47 1.12-3.12 1.73-4.99 1.72-9.51-.02-19.03-.03-28.54 0-.99 0-1.61-.29-2.17-1.09-.87-1.23-1.83-2.4-2.92-3.83zm36.18-35.1c3.91 6.23 5.18 13.06 4.6 20.3-.4 5.01-1.77 9.76-4.16 14.24.42-.2.79-.46 1.04-.79 5.1-6.72 6.51-14.28 4.9-22.44-.87-4.44-2.79-8.39-6.21-11.5" fill="#343434"/><path d="M173.65 145.66h16.31c-.65-1.82-1.46-3.55-1.9-5.38-1.19-4.98-1.01-9.93 1.05-14.67.59-1.36 1.49-2.67 2.51-3.74 2.09-2.18 4.83-2.14 7.03-.05 2.18 2.07 3.15 4.76 3.74 7.62.95 4.65.7 9.22-1.05 13.66-.36.92-.86 1.81-1.41 2.63-1.4 2.09-3.26 3.16-5.94 3.09-5.47-.15-10.96-.08-16.43-.02-1.12.01-1.89-.23-2.46-1.22-.35-.61-.85-1.14-1.45-1.92zm23.37-.46c.26-.24.58-.44.76-.73.63-1.02 1.35-2 1.77-3.1 2.23-5.79 2.09-11.39-1.62-16.61-.24-.34-.62-.57-.93-.86 3.59 7.16 3.3 14.16.02 21.3z" fill="#353535"/><path class="st3" d="M228.7 147.34h9.51c-1.36-2.46-1.91-5.01-1.53-7.61.26-1.81.74-3.71 1.62-5.3 1.49-2.71 4.22-2.69 5.74 0 2.38 4.2 2.32 8.54.02 12.79-.75 1.39-1.98 2.06-3.66 2.01-2.91-.09-5.84-.12-8.75.01-1.47.06-2.34-.44-2.95-1.9zm13.95-.75c2.55-3.12 2.54-9.62-.16-11.41 1.66 3.84 1.57 7.54-.01 11.23-.1.09-.21.18-.31.27.03.05.05.1.08.14.13-.08.27-.15.4-.23z"/><path d="M94.22 143.97c-1.2 1.56-2.24 2.97-3.35 4.32-.23.28-.73.47-1.1.47-5.07.03-10.13.03-15.2.03-1.43 0-2.87.06-4.3-.05-.51-.04-1.12-.34-1.45-.73-1.08-1.26-2.05-2.61-3.17-4.05 9.57.01 18.96.01 28.57.01z" fill="#363636"/><path class="st3" d="M245.41 147.73h3.86c-.3-2.06-.86-4.05-.79-6.01.06-1.6.63-3.31 1.41-4.73 1.13-2.05 3.16-1.95 4.52-.01 1.9 2.71 1.91 8.01.01 10.73-.68.98-1.54 1.56-2.81 1.5-1.36-.06-2.73-.11-4.08.01-1.14.11-1.62-.48-2.12-1.49zm7.82-.87c2.38-1.71 1.99-8.3.02-8.91 1.34 2.95 1.2 5.89-.02 8.91z"/><path d="M161.97 142.92c-.25.33-.62.59-1.04.79 2.4-4.49 3.76-9.23 4.16-14.24.59-7.24-.68-14.08-4.59-20.3l-.21-.27c.13.03.25.05.38.08 3.41 3.11 5.33 7.05 6.21 11.5 1.6 8.16.19 15.72-4.91 22.44z" fill="#f6f6f6"/><path d="M197.02 145.2c3.28-7.15 3.57-14.14-.02-21.3.31.28.69.52.93.86 3.7 5.22 3.84 10.82 1.62 16.61-.42 1.1-1.15 2.09-1.77 3.1-.18.29-.51.49-.76.73z" fill="#f2f2f2"/><path d="M242.66 146.59c-.14.08-.27.15-.41.23-.03-.05-.05-.09-.08-.14.11-.09.21-.18.31-.27 1.59-3.69 1.67-7.4.01-11.23 2.71 1.79 2.71 8.29.17 11.41z" fill="#ebebeb"/><path d="M253.23 146.86c1.21-3.03 1.35-5.96.02-8.91 1.97.61 2.36 7.2-.02 8.91z" fill="#eaeaea"/><path class="st0" d="M117.21 156.85h69.12v67.68h-69.12zm75.14 0h69.12v67.68h-69.12zm-149.82-.01h69.12v67.68H42.53z"/><path d="M57.13 165.1c0-1.15.93-2.08 2.08-2.08h14.45c7.67 0 13.21 1.12 16.62 3.35s5.12 5.76 5.12 10.59c0 3.25-.84 5.95-2.51 8.11s-4.09 3.52-7.24 4.08v.38c3.91.74 6.79 2.19 8.63 4.36 1.84 2.17 2.76 5.11 2.76 8.82 0 5-1.75 8.92-5.24 11.75s-8.35 4.25-14.57 4.25H59.21c-1.15 0-2.08-.93-2.08-2.08V165.1zm9.1 18.85c0 1.15.93 2.08 2.08 2.08h6.68c3.81 0 6.59-.6 8.34-1.81s2.63-3.26 2.63-6.15c0-2.62-.95-4.51-2.84-5.67-1.89-1.17-4.89-1.75-9.01-1.75h-5.8c-1.15 0-2.08.93-2.08 2.08v11.22zm0 11.54v13.47c0 1.15.93 2.08 2.08 2.08h7.59c3.81 0 6.68-.73 8.63-2.19 1.94-1.46 2.91-3.76 2.91-6.91 0-2.89-.99-5.04-2.97-6.44s-4.99-2.09-9.03-2.09H68.3c-1.14 0-2.07.94-2.07 2.08zm88.03 23.23h-4.92c-1.15 0-2.09-.94-2.09-2.09v-43.69c0-1.15-.94-2.09-2.09-2.09h-12.2c-1.15 0-2.09-.94-2.09-2.09v-3.63c0-1.15.94-2.09 2.09-2.09h37.68c1.15 0 2.09.94 2.09 2.09v3.63c0 1.15-.94 2.09-2.09 2.09h-12.2c-1.15 0-2.09.94-2.09 2.09v43.69c0 1.15-.93 2.09-2.09 2.09zm77.17-30.37h16.49a2 2 0 012 2v24.48c0 .88-.57 1.66-1.41 1.91-2.85.86-5.6 1.49-8.25 1.88-3.08.46-6.42.69-10 .69-8.43 0-14.93-2.49-19.5-7.48s-6.86-12.03-6.86-21.12c0-8.96 2.58-15.98 7.73-21.04 5.15-5.07 12.25-7.6 21.29-7.6 5.09 0 9.94.86 14.57 2.57a2.02 2.02 0 011.17 2.67l-1.62 3.84c-.42 1-1.56 1.49-2.56 1.08-3.93-1.57-7.85-2.36-11.78-2.36-5.94 0-10.64 1.87-14.09 5.6-3.45 3.73-5.18 8.84-5.18 15.31 0 6.8 1.55 11.98 4.67 15.52 3.11 3.54 7.58 5.31 13.43 5.31 2.47 0 5.08-.26 7.84-.78.94-.18 1.6-1.01 1.6-1.96v-10.72a2 2 0 00-2-2h-7.54a2 2 0 01-2-2v-3.8c0-1.11.89-2 2-2z" fill="#fff"/></svg>